IKResults
version=1
nRows=8
nColumns=63
inDegrees=yes

Units are S.I. units (second, meters, Newtons, ...)
If the header above contains a line with 'inDegrees', this indicates whether rotational values are in degrees (yes) or radians (no).

endheader
time	pelvis_tilt	pelvis_list	pelvis_rotation	pelvis_tx	pelvis_ty	pelvis_tz	hip_flexion_r	hip_adduction_r	hip_rotation_r	knee_angle_r	knee_angle_r_beta	ankle_angle_r	subtalar_angle_r	mtp_angle_r	hip_flexion_l	hip_adduction_l	hip_rotation_l	knee_angle_l	knee_angle_l_beta	ankle_angle_l	subtalar_angle_l	mtp_angle_l	L5_S1_Flex_Ext	L5_S1_Lat_Bending	L5_S1_axial_rotation	L4_L5_Flex_Ext	L4_L5_Lat_Bending	L4_L5_axial_rotation	L3_L4_Flex_Ext	L3_L4_Lat_Bending	L3_L4_axial_rotation	L2_L3_Flex_Ext	L2_L3_Lat_Bending	L2_L3_axial_rotation	L1_L2_Flex_Ext	L1_L2_Lat_Bending	L1_L2_axial_rotation	L1_T12_Flex_Ext	L1_T12_Lat_Bending	L1_T12_axial_rotation	Abs_r3	Abs_r2	Abs_r1	Abs_t1	Abs_t2	neck_flexion	neck_bending	neck_rotation	arm_flex_r	arm_add_r	arm_rot_r	elbow_flex_r	pro_sup_r	wrist_flex_r	wrist_dev_r	arm_flex_l	arm_add_l	arm_rot_l	elbow_flex_l	pro_sup_l	wrist_flex_l	wrist_dev_l
      2.03333333	    -25.07607161	     -8.14243278	      3.66407886	      0.04825781	      0.93638842	     -0.31853291	     31.31736814	     -4.01746667	    -17.25914366	     12.34191026	      0.21540697	     -1.86767931	    -10.45906035	      0.00000000	     24.93208709	     -5.79812496	     -5.70926059	     19.75963285	      0.34487065	     21.60616589	      1.08580185	      0.00000000	      4.06718689	      0.20169698	     -1.44532122	      7.55317277	      0.26825698	     -1.53565380	      6.68198134	      0.49040604	     -1.53565380	      4.64838789	      0.49040604	     -1.26465607	      3.77678974	      0.41130048	     -1.17432349	      2.32399059	      0.31242862	     -1.08399092	     29.05150922	      2.28163658	     -8.03844304	      0.00000000	      0.00000000	     11.11248151	      3.44744305	    -11.54246580	    -15.29377865	    -10.34630464	      5.11616864	     26.18896653	     89.99559364	      0.00000000	      0.00000000	    -16.53142084	    -13.17122585	     -4.48101511	     37.86144294	     89.99559364	      0.00000000	      0.00000000
      2.06666667	    -24.62182908	     -7.47575909	      3.10145858	      0.03843453	      0.93864883	     -0.31771036	     29.84004260	     -4.63663814	    -17.55754162	     14.29627167	      0.24951701	      0.17830046	     -9.32896833	      0.00000000	     24.17675312	     -4.95110723	     -4.75654604	     18.18876661	      0.31745386	     20.33110942	     -1.16814647	      0.00000000	      3.98958603	      0.15592912	     -1.53244232	      7.40906022	      0.20738573	     -1.62821996	      6.55449089	      0.37912605	     -1.62821996	      4.55969787	      0.37912605	     -1.34088703	      3.70472959	      0.31797066	     -1.24510938	      2.27964946	      0.24153420	     -1.14933174	     28.49721406	      1.76390136	     -8.52298444	      0.00000000	      0.00000000	     11.21900392	      3.78708020	    -10.23449301	    -15.44135899	    -10.30195387	      5.72054981	     25.26202636	     89.99559364	      0.00000000	      0.00000000	    -15.32757506	    -13.74097382	     -5.42663617	     39.43900310	     89.99559364	      0.00000000	      0.00000000
      2.10000000	    -24.64703297	     -7.28270190	      2.68746858	      0.02879445	      0.93988110	     -0.31636475	     28.49292843	     -4.75194278	    -17.36346905	     15.94802964	      0.27834563	      1.33541782	     -9.66963725	      0.00000000	     23.97870497	     -4.75516442	     -4.63504081	     16.69327849	      0.29135267	     19.59438669	     -1.22663248	      0.00000000	      4.00645096	      0.15698211	     -1.60038312	      7.44038008	      0.20878620	     -1.70040707	      6.58219828	      0.38168629	     -1.70040707	      4.57897280	      0.38168629	     -1.40033523	      3.72039036	      0.32011791	     -1.30031129	      2.28928608	      0.24316528	     -1.20028734	     28.61767855	      1.77581299	     -8.90085082	      0.00000000	      0.00000000	     11.29072526	      3.48119479	     -9.51478152	    -16.29643088	    -10.44931912	      5.64527371	     25.17621116	     89.99559364	      0.00000000	      0.00000000	    -14.11370458	    -14.28121914	     -5.58142657	     40.80151742	     89.99559364	      0.00000000	      0.00000000
      2.13333333	    -23.71864178	     -6.22893664	      2.04027406	      0.01837857	      0.94166036	     -0.31397672	     26.23542891	     -5.49266278	    -15.94784722	     17.79261872	      0.31053978	      2.69507609	     -9.99695259	      0.00000000	     22.56507084	     -3.74413302	     -4.23267348	     14.93320793	      0.26063365	     18.35057824	     -3.09327117	      0.00000000	      3.83958827	      0.07503808	     -1.53163333	      7.13049938	      0.09980065	     -1.62736041	      6.30805957	      0.18244759	     -1.62736041	      4.38826544	      0.18244759	     -1.34017916	      3.56544167	      0.15301766	     -1.24445208	      2.19394074	      0.11623399	     -1.14872499	     27.42579507	      0.84884580	     -8.51848506	      0.00000000	      0.00000000	     12.01861342	      3.71186003	     -8.16764199	    -16.66323898	    -10.06837097	      4.68983198	     24.99574296	     89.99559364	      0.00000000	      0.00000000	    -12.50792273	    -15.18529812	     -5.51545618	     42.26861994	     89.99559364	      0.00000000	      0.00000000
      2.16666667	    -22.34676954	     -5.80807409	      1.60791071	      0.00661270	      0.94338670	     -0.31157828	     23.42269981	     -5.59503036	    -14.44195934	     19.46346668	      0.33970158	      3.25838059	    -11.26721242	      0.00000000	     20.99034906	     -3.21734926	     -2.17016560	     13.45538988	      0.23484086	     16.96591482	     -6.70285522	      0.00000000	      3.57131726	      0.05673260	     -1.43748060	      6.63229329	      0.07545436	     -1.52732314	      5.86731713	      0.13793964	     -1.52732314	      4.08165850	      0.13793964	     -1.25779553	      3.31632521	      0.11568911	     -1.16795299	      2.04065068	      0.08787879	     -1.07811045	     25.50956209	      0.64177050	     -7.99483586	      0.00000000	      0.00000000	     13.24114027	      3.42930307	     -7.82666106	    -16.95548922	     -9.57898166	      1.65575739	     25.07387384	     89.99559364	      0.00000000	      0.00000000	    -10.00509066	    -15.87519050	     -4.58703134	     42.83330273	     89.99559364	      0.00000000	      0.00000000
      2.20000000	    -21.72133441	     -5.35034845	      1.40888116	     -0.00527060	      0.94385899	     -0.30877276	     21.20625645	     -5.85836165	    -13.37710664	     20.96473635	      0.36590368	      3.63767125	    -11.97272260	      0.00000000	     20.32032935	     -2.69099739	     -0.61918805	     12.20363493	      0.21299361	     15.53581751	     -9.45901418	      0.00000000	      3.44921942	      0.02798025	     -1.36990222	      6.40554538	      0.03721373	     -1.45552110	      5.66672258	      0.06803118	     -1.45552110	      3.94211287	      0.06803118	     -1.19866444	      3.20294515	      0.05705733	     -1.11304555	      1.97088398	      0.04334141	     -1.02742666	     24.63742938	      0.31651819	     -7.61898515	      0.00000000	      0.00000000	     14.23097957	      2.96588690	     -7.46023447	    -17.68697461	     -8.97254888	     -2.08661361	     25.68073143	     89.99559364	      0.00000000	      0.00000000	     -7.95289277	    -16.45146738	     -3.80780659	     43.42433945	     89.99559364	      0.00000000	      0.00000000
      2.23333333	    -21.05938383	     -4.73803701	      0.87952173	     -0.01797140	      0.94415291	     -0.30465364	     19.09455249	     -6.13959452	    -11.94925804	     22.45425935	      0.39190076	      3.84166627	    -12.16451770	      0.00000000	     19.75945942	     -2.37184248	     -1.00416816	     11.29478519	      0.19713119	     14.68691977	    -10.03992601	      0.00000000	      3.31997884	     -0.01321605	     -1.24251075	      6.16553270	     -0.01757735	     -1.32016768	      5.45439323	     -0.03213351	     -1.32016768	      3.79440382	     -0.03213351	     -1.08719691	      3.08293235	     -0.02695017	     -1.00953999	      1.89703591	     -0.02047166	     -0.93188307	     23.71427685	     -0.14950261	     -6.91047206	      0.00000000	      0.00000000	     15.20570407	      2.76896655	     -7.24526507	    -17.87632850	     -8.75443046	     -2.85532162	     25.83628427	     89.99559364	      0.00000000	      0.00000000	     -5.99516394	    -16.94026170	     -3.35025111	     43.86391137	     89.99559364	      0.00000000	      0.00000000
      2.26666667	    -20.22223669	     -4.14999703	      0.51511094	     -0.03141146	      0.94448306	     -0.30003280	     16.80424363	     -6.36223920	    -10.47932896	     23.70984263	      0.41381482	      3.66982276	    -12.35433689	      0.00000000	     19.24712884	     -2.09122527	     -1.34578442	     10.69507197	      0.18666422	     13.90991478	    -10.54974982	      0.00000000	      3.15957269	     -0.05940133	     -1.13436061	      5.86764245	     -0.07900376	     -1.20525814	      5.19086198	     -0.14442838	     -1.20525814	      3.61107563	     -0.14442838	     -0.99256553	      2.93397920	     -0.12113118	     -0.92166799	      1.80537984	     -0.09201265	     -0.85077045	     22.56851179	     -0.67195968	     -6.30897339	      0.00000000	      0.00000000	     16.28550955	      2.55023560	     -7.39750101	    -17.69203323	     -8.40110202	     -4.00863861	     25.58717126	     89.99559364	      0.00000000	      0.00000000	     -3.98880375	    -17.37776649	     -2.65259489	     43.90132786	     89.99559364	      0.00000000	      0.00000000
